<svg width="96" height="96" viewBox="0 0 96 96" xmlns="http://www.w3.org/2000/svg" role="img" aria-label="EasyPaisa icon">
  <rect x="1" y="1" width="94" height="94" rx="18" fill="#ffffff" stroke="#e5e7eb"/>
  <path d="M34 24c5-5 14-5 19 0l2 2c2 2 2 5 0 7s-5 2-7 0l-2-2c-2-2-5-2-7 0s-2 5 0 7l2 2c5 5 5 14 0 19s-14 5-19 0l-2-2c-2-2-2-5 0-7s5-2 7 0l2 2c2 2 5 2 7 0s2-5 0-7l-2-2c-5-5-5-14 0-19z" fill="#111827"/>
  <path d="M62 50c0 10-8 18-18 18s-18-8-18-18h9c0 5 4 9 9 9s9-4 9-9h9z" fill="#00A651"/>
</svg>
